<svg width="16" height="16" viewBox="0 0 16 16" fill="none" xmlns="http://www.w3.org/2000/svg">
<g clip-path="url(#clip0_2584_1649)">
<mask id="mask0_2584_1649" style="mask-type:luminance" maskUnits="userSpaceOnUse" x="0" y="0" width="16" height="16">
<path d="M0 0H16V16H0V0Z" fill="white"/>
</mask>
<g mask="url(#mask0_2584_1649)">
<path fill-rule="evenodd" clip-rule="evenodd" d="M15.8048 3.5282C15.9298 3.65322 16 3.82276 16 3.99953C16 4.17631 15.9298 4.34585 15.8048 4.47087L9.47144 10.8042C9.34642 10.9292 9.17688 10.9994 9.00011 10.9994C8.82333 10.9994 8.65379 10.9292 8.52878 10.8042L5.66678 7.9422L1.13811 12.4709C1.01237 12.5923 0.843972 12.6595 0.669175 12.658C0.494377 12.6565 0.327168 12.5864 0.203563 12.4627C0.0799575 12.3391 0.00984493 12.1719 0.00832598 11.9971C0.00680704 11.8223 0.0740033 11.6539 0.195442 11.5282L5.19544 6.5282C5.32046 6.40322 5.49 6.33301 5.66678 6.33301C5.84355 6.33301 6.01309 6.40322 6.13811 6.5282L9.00011 9.3902L14.8621 3.5282C14.9871 3.40322 15.1567 3.33301 15.3334 3.33301C15.5102 3.33301 15.6798 3.40322 15.8048 3.5282Z" fill="#1F59EE"/>
<path fill-rule="evenodd" clip-rule="evenodd" d="M10.6667 3.99967C10.6667 3.82286 10.737 3.65329 10.862 3.52827C10.987 3.40325 11.1566 3.33301 11.3334 3.33301H15.3334C15.5102 3.33301 15.6798 3.40325 15.8048 3.52827C15.9298 3.65329 16.0001 3.82286 16.0001 3.99967V7.99967C16.0001 8.17649 15.9298 8.34605 15.8048 8.47108C15.6798 8.5961 15.5102 8.66634 15.3334 8.66634C15.1566 8.66634 14.987 8.5961 14.862 8.47108C14.737 8.34605 14.6667 8.17649 14.6667 7.99967V4.66634H11.3334C11.1566 4.66634 10.987 4.5961 10.862 4.47108C10.737 4.34605 10.6667 4.17649 10.6667 3.99967Z" fill="#1F59EE"/>
</g>
</g>
<defs>
<clipPath id="clip0_2584_1649">
<rect width="16" height="16" fill="white"/>
</clipPath>
</defs>
</svg>
