<svg width="18" height="18" viewBox="0 0 18 18" fill="none" xmlns="http://www.w3.org/2000/svg">
<path d="M9.00011 0.782227C7.37486 0.782227 5.78611 1.26417 4.43477 2.16711C3.08343 3.07004 2.03018 4.35343 1.40823 5.85496C0.786275 7.35649 0.623544 9.00873 0.940613 10.6027C1.25768 12.1968 2.04031 13.661 3.18954 14.8102C4.33876 15.9594 5.80296 16.742 7.39697 17.0591C8.99099 17.3762 10.6432 17.2134 12.1448 16.5915C13.6463 15.9695 14.9297 14.9163 15.8326 13.565C16.7356 12.2136 17.2175 10.6249 17.2175 8.99962C17.2153 6.82091 16.3488 4.73208 14.8082 3.19151C13.2676 1.65093 11.1788 0.784458 9.00011 0.782227ZM11.9752 11.9747C11.8567 12.0931 11.696 12.1596 11.5285 12.1596C11.361 12.1596 11.2004 12.0931 11.0818 11.9747L8.55342 9.4463C8.43484 9.32788 8.36815 9.1672 8.368 8.99962V3.94276C8.368 3.77512 8.4346 3.61434 8.55314 3.49579C8.67168 3.37725 8.83246 3.31065 9.00011 3.31065C9.16775 3.31065 9.32853 3.37725 9.44707 3.49579C9.56562 3.61434 9.63221 3.77512 9.63221 3.94276V8.73834L11.9752 11.0814C12.0936 11.1999 12.1601 11.3605 12.1601 11.528C12.1601 11.6956 12.0936 11.8562 11.9752 11.9747Z" fill="#9810FA"/>
</svg>
