<svg width="16" height="16" viewBox="0 0 16 16" fill="none" xmlns="http://www.w3.org/2000/svg">
<g clip-path="url(#clip0_2584_1685)">
<path d="M9.1978 6.4744C9.1978 7.48432 8.88164 7.72752 7.71332 7.72752H6.46021V5.16016H7.71204C8.88164 5.16016 9.1978 5.47664 9.1978 6.4744Z" fill="#F55101"/>
<path d="M0 8C0 12.4182 3.58176 16 8 16C12.4182 16 16 12.4182 16 8C16 3.58176 12.4182 0 8 0C3.58176 0 0 3.58176 0 8ZM11.607 12.8H9.7088C9.42912 12.8 9.34368 12.7149 9.22208 12.5322L7.23808 9.40512H6.46016V12.6051C6.46016 12.7635 6.42368 12.8 6.27776 12.8H4.39168C4.24576 12.8 4.20928 12.7635 4.20928 12.6051V3.51712C4.20928 3.39552 4.24576 3.35904 4.39168 3.34688C5.584 3.25088 6.80096 3.20096 7.9568 3.20096C10.585 3.20096 11.4851 4.00384 11.4851 6.40096C11.4851 8.18944 11.0109 8.96832 9.68448 9.26016L11.753 12.5562C11.8502 12.6915 11.7894 12.8 11.607 12.8Z" fill="#F55101"/>
</g>
<defs>
<clipPath id="clip0_2584_1685">
<rect width="16" height="16" fill="white"/>
</clipPath>
</defs>
</svg>
