<svg width="16" height="16" viewBox="0 0 16 16" fill="none" xmlns="http://www.w3.org/2000/svg">
<g clip-path="url(#clip0_2584_1664)">
<path d="M15.7334 7.99995C15.7334 12.4351 12.0027 15.9965 7.50722 15.7181C3.65549 15.4794 0.520557 12.3445 0.282157 8.49275C0.00349084 3.99728 3.56482 0.266613 8.00002 0.266613C9.17756 0.264592 10.3399 0.532904 11.3974 1.05088C11.6723 1.18581 11.7731 1.52821 11.6214 1.79435L11.6203 1.79621C11.5527 1.91432 11.4426 2.0021 11.3124 2.04157C11.1822 2.08104 11.0418 2.0692 10.92 2.00848C9.90189 1.50715 8.73789 1.26315 7.50936 1.35088C4.28269 1.58101 1.64749 4.16901 1.36029 7.39115C1.00296 11.4015 4.21682 14.7677 8.17709 14.6642C11.5686 14.5757 14.3995 11.8861 14.6478 8.50261C14.7125 7.65344 14.613 6.79975 14.3547 5.98821C14.3165 5.8677 14.3228 5.73752 14.3723 5.62121C14.4218 5.5049 14.5113 5.41015 14.6246 5.35408C14.9163 5.20821 15.2739 5.35408 15.3728 5.66475C15.6124 6.41995 15.7342 7.20764 15.7334 7.99995Z" fill="#6BB577"/>
<path d="M4.10967 5.99246L8.32674 11.6983C8.39938 11.7976 8.4957 11.877 8.60692 11.9295C8.71814 11.9819 8.84072 12.0057 8.96349 11.9987C9.08626 11.9916 9.20531 11.954 9.30979 11.8891C9.41428 11.8243 9.50086 11.7343 9.56167 11.6274L15.6555 1.0786C15.9729 0.529264 15.2489 -0.0230028 14.8171 0.439397L8.46834 7.23993L4.7846 5.201C4.28673 4.92553 3.7694 5.53193 4.10967 5.99246Z" fill="#6BB577"/>
</g>
<defs>
<clipPath id="clip0_2584_1664">
<rect width="16" height="16" fill="white"/>
</clipPath>
</defs>
</svg>
