<svg width="14" height="14" viewBox="0 0 14 14" fill="none" xmlns="http://www.w3.org/2000/svg">
<path d="M6.54545 0C7.41343 0 8.24587 0.344804 8.85962 0.95856C9.47338 1.57231 9.81818 2.40475 9.81818 3.27273C9.81818 4.14071 9.47338 4.97314 8.85962 5.5869C8.24587 6.20065 7.41343 6.54545 6.54545 6.54545C5.67747 6.54545 4.84504 6.20065 4.23129 5.5869C3.61753 4.97314 3.27273 4.14071 3.27273 3.27273C3.27273 2.40475 3.61753 1.57231 4.23129 0.95856C4.84504 0.344804 5.67747 0 6.54545 0ZM6.54545 13.0909C6.54545 13.0909 13.0909 13.0909 13.0909 11.4545C13.0909 9.49091 9.9 7.36364 6.54545 7.36364C3.19091 7.36364 0 9.49091 0 11.4545C0 13.0909 6.54545 13.0909 6.54545 13.0909Z" fill="#ED457D"/>
</svg>
