<svg width="142" height="33" viewBox="0 0 142 33" fill="none" xmlns="http://www.w3.org/2000/svg">
<path d="M49.111 11.1354C48.3053 9.74859 47.209 8.6446 45.8511 7.85419C44.4916 7.06379 42.9555 6.66292 41.2879 6.66292C39.6202 6.66292 38.0841 7.06379 36.7246 7.85419C35.3667 8.6446 34.2705 9.74696 33.4648 11.1354C32.659 12.5255 32.2497 14.1435 32.2497 15.9457C32.2497 17.748 32.659 19.3661 33.4648 20.756C34.2705 22.1462 35.3684 23.2453 36.7294 24.0244C38.0874 24.8035 39.6218 25.1978 41.2879 25.1978C42.9539 25.1978 44.4883 24.8035 45.8462 24.0244C47.2057 23.2453 48.3053 22.1445 49.111 20.756C49.9167 19.3661 50.326 17.748 50.326 15.9457C50.326 14.1435 49.9167 12.5255 49.111 11.1354ZM44.3952 18.1246C44.0646 18.734 43.6361 19.1947 43.0872 19.5309C42.5446 19.8638 41.9555 20.0255 41.2879 20.0255C40.6202 20.0255 40.031 19.8638 39.4886 19.5309C38.938 19.1947 38.5111 18.734 38.1804 18.1246C37.8498 17.5168 37.6828 16.783 37.6828 15.9457C37.6828 15.1085 37.8498 14.3439 38.1804 13.7362C38.5111 13.1268 38.9397 12.6661 39.4886 12.3299C40.031 11.997 40.6202 11.8353 41.2879 11.8353C41.9555 11.8353 42.5446 11.997 43.0872 12.3299C43.6361 12.6661 44.0646 13.1268 44.3952 13.7362C44.7259 14.3455 44.8929 15.0891 44.8929 15.9457C44.8929 16.8025 44.7259 17.5168 44.3952 18.1246ZM97.6258 10.7459C98.3175 11.9388 98.6691 13.3272 98.6691 14.8726V22.2852C98.6691 23.7383 97.499 24.9167 96.056 24.9167H94.276C93.6982 24.9167 93.231 24.4446 93.231 23.8644V14.7415C93.231 14.1888 93.1236 13.7103 92.91 13.3175C92.6966 12.9248 92.4206 12.629 92.0675 12.4124C91.7175 12.1974 91.3388 12.0939 90.9085 12.0939C90.4784 12.0939 90.0997 12.1974 89.7497 12.4124C89.395 12.629 89.1206 12.9264 88.907 13.3175C88.6936 13.7087 88.586 14.1888 88.586 14.7415V22.2852C88.586 23.7383 87.4159 24.9167 85.9729 24.9167H84.193C83.6152 24.9167 83.1481 24.4446 83.1481 23.8644V14.7415C83.1481 14.1904 83.0405 13.7103 82.8271 13.3192C82.6136 12.9264 82.3375 12.6306 81.9844 12.414C81.6344 12.199 81.2557 12.0956 80.8256 12.0956C80.3953 12.0956 80.0166 12.199 79.6666 12.414C79.3119 12.6306 79.0375 12.928 78.8241 13.3192C78.6105 13.7103 78.5029 14.1904 78.5029 14.7432V22.2868C78.5029 23.7399 77.3329 24.9183 75.89 24.9183H74.1116C73.5337 24.9183 73.0666 24.4463 73.0666 23.866V14.8741C73.0666 13.3289 73.4181 11.9404 74.1099 10.7475C74.8001 9.55624 75.7422 8.60904 76.9076 7.93179C78.0761 7.25291 79.3938 6.90862 80.8256 6.90862C82.2572 6.90862 83.5751 7.25291 84.7436 7.93179C85.1399 8.16292 85.5091 8.42478 85.8526 8.71734C85.8606 8.7238 85.8703 8.7238 85.8783 8.71734C86.2217 8.42478 86.5909 8.16292 86.9874 7.93339C88.1559 7.25452 89.4736 6.91023 90.9054 6.91023C92.3371 6.91023 93.6549 7.25452 94.8234 7.93339C95.9886 8.61066 96.9308 9.55785 97.6209 10.7491L97.6258 10.7459ZM133.215 17.9662L135.713 20.4813C136.754 21.5303 136.831 23.2389 135.828 24.3235C134.774 25.4629 133.002 25.4871 131.918 24.3946L129.374 21.8325C128.661 21.1149 128.661 19.9528 129.374 19.235L130.636 17.9647C131.348 17.2469 132.502 17.2469 133.215 17.9647V17.9662ZM129.356 10.012L131.857 7.49374C132.899 6.44472 134.595 6.36713 135.672 7.37737C136.803 8.43932 136.828 10.2238 135.743 11.3148L133.197 13.8784C132.485 14.596 131.331 14.596 130.618 13.8784L129.356 12.6079C128.644 11.8903 128.644 10.7281 129.356 10.0104V10.012ZM119.278 24.1828C118.147 23.1209 118.123 21.3364 119.207 20.2454L123.492 15.9312L119.206 11.6155C118.123 10.5244 118.147 8.73997 119.277 7.67802C120.354 6.66778 122.05 6.74537 123.092 7.7944L130.159 14.9113C130.719 15.4754 130.719 16.3886 130.159 16.9511L123.093 24.0664C122.052 25.1155 120.355 25.193 119.278 24.1812V24.1828ZM21.0479 22.2933C21.0479 23.7416 19.8826 24.9167 18.4429 24.9167H16.6565C16.0803 24.9167 15.6148 24.4463 15.6148 23.8677V3.40755C15.6148 1.95928 16.7817 0.78418 18.2198 0.78418H20.0063C20.5825 0.78418 21.0479 1.25455 21.0479 1.83321V8.27284C22.6306 7.21412 23.714 6.96196 24.921 6.96196C27.595 6.96196 31.0667 8.06918 31.0667 14.4684V22.2916C31.0667 23.7399 29.8999 24.915 28.4617 24.915H26.6752C26.0991 24.915 25.6336 24.4446 25.6336 23.866V14.4684C25.6336 13.8284 25.4089 13.2561 24.9835 12.8148C24.5518 12.3687 24.1345 12.1327 23.4893 12.1327C22.844 12.1327 22.125 12.3687 21.6947 12.8148C21.2694 13.2545 21.0447 13.8267 21.0447 14.4684V22.2916L21.0479 22.2933ZM116.092 7.06056H114.465C113.701 7.06056 113.022 7.33534 112.518 7.86874C112.449 7.9431 112.399 8.00613 112.343 8.0821C111.816 7.6974 111.201 7.36766 110.513 7.10097C109.762 6.81002 108.943 6.66292 108.078 6.66292C106.534 6.66292 105.112 7.07025 103.853 7.8736C102.605 8.67046 101.608 9.78091 100.889 11.1742C100.176 12.553 99.8151 14.1629 99.8151 15.9297C99.8151 17.6963 100.176 19.3062 100.889 20.685C101.608 22.0782 102.606 23.1903 103.853 23.9856C105.112 24.7889 106.534 25.1963 108.078 25.1963C108.943 25.1963 109.762 25.0492 110.513 24.7583C111.201 24.4915 111.816 24.1618 112.343 23.7771C112.42 23.8854 112.506 23.9888 112.601 24.0874C113.111 24.6159 113.784 24.8956 114.548 24.8956H116.092C116.739 24.8956 117.264 24.3671 117.264 23.7157V8.2405C117.264 7.58911 116.739 7.06056 116.092 7.06056ZM111.702 18.1246C111.372 18.734 110.943 19.1947 110.394 19.5309C109.852 19.8638 109.263 20.0255 108.595 20.0255C107.927 20.0255 107.338 19.8638 106.796 19.5309C106.247 19.1947 105.818 18.734 105.487 18.1246C105.157 17.5168 104.99 16.7685 104.99 15.9297C104.99 15.0906 105.157 14.3424 105.487 13.7346C105.818 13.1252 106.247 12.6645 106.796 12.3283C107.338 11.9953 107.927 11.8337 108.595 11.8337C109.263 11.8337 109.852 11.9953 110.394 12.3283C110.943 12.6645 111.372 13.1252 111.702 13.7346C112.033 14.3439 112.2 15.0923 112.2 15.9297C112.2 16.7669 112.033 17.5153 111.702 18.1246ZM0.348947 22.2302C-0.102077 21.7518 -0.00416739 21.3573 0.0423796 21.1537C0.0905317 20.9484 0.304006 20.1143 1.00863 19.2981C1.81759 18.359 2.72606 18.3267 3.33117 18.4559C3.64898 18.5239 3.94752 18.6645 4.21235 18.8552C4.7324 19.2319 6.19782 20.2098 7.57657 20.2825C8.45615 20.2857 8.88953 19.8817 8.93928 19.6521C9.17362 18.5901 6.88961 18.3638 4.93623 17.6656C3.00854 16.977 0.716509 15.5821 0.716509 12.3396C0.716509 9.09718 3.61206 6.85204 6.85751 6.67424C10.5957 6.46896 13.1847 8.68824 13.6293 9.10689C14.0852 9.53684 14.0144 9.9183 13.9809 10.1155C13.9471 10.3127 13.7898 11.1193 13.1654 11.9372C12.448 12.8763 11.5844 12.9587 11.0018 12.8714C10.6952 12.8245 10.4031 12.7082 10.1399 12.5417C9.62304 12.2135 8.17527 11.3746 6.8559 11.3827C6.39042 11.4054 6.07584 11.5993 5.9699 11.8838C5.5269 13.0735 8.26675 13.2497 10.4753 14.1306C12.6839 15.0099 14.5554 16.3207 14.4896 19.484C14.4062 23.4377 10.8333 25.1995 7.28445 25.1963C3.36006 25.1785 0.787132 22.6958 0.347343 22.2302H0.348947ZM73.1147 9.34288L67.7057 24.2281C67.5549 24.6418 67.1648 24.9167 66.7266 24.9167H65.1986C64.2965 24.9167 63.4972 24.3315 63.2179 23.4684L61.5535 18.3283L59.8905 23.4667C59.6113 24.3299 58.812 24.915 57.9099 24.915H56.3803C55.9438 24.915 55.552 24.6403 55.4028 24.2264L49.9794 9.34126C49.6118 8.33103 50.3356 7.25614 51.403 7.22542L54.0594 7.15107C54.5072 7.13815 54.9133 7.41616 55.0673 7.84127L57.7719 15.3186L59.4958 10.6489C59.7156 10.0525 60.2823 9.65645 60.9146 9.65645H62.2325C62.8697 9.65645 63.4378 10.0573 63.6561 10.6618L65.3334 15.3203L68.0235 7.8445C68.176 7.41939 68.5837 7.13976 69.033 7.15268L71.6927 7.22704C72.7601 7.25776 73.4839 8.33103 73.1163 9.34126L73.1147 9.34288Z" fill="#1A1A1A" fill-opacity="0.35"/>
</svg>
