<svg width="20" height="20" viewBox="0 0 20 20" fill="none" xmlns="http://www.w3.org/2000/svg">
<path fill-rule="evenodd" clip-rule="evenodd" d="M9.99929 0C4.36639 0 0 4.12611 0 9.69931C0 12.6145 1.19471 15.1335 3.14034 16.8734C3.30366 17.0196 3.40226 17.2244 3.40896 17.4436L3.46341 19.2222C3.48081 19.7896 4.06685 20.1588 4.58601 19.9296L6.57073 19.0534C6.73898 18.9792 6.92751 18.9654 7.10479 19.0142C8.01683 19.265 8.98752 19.3986 9.99929 19.3986C15.6322 19.3986 19.9986 15.2725 19.9986 9.69931C19.9986 4.12611 15.6322 0 9.99929 0Z" fill="white"/>
<path fill-rule="evenodd" clip-rule="evenodd" d="M3.99516 12.5361L6.93245 7.87605C7.39968 7.13471 8.40021 6.95012 9.10126 7.47588L11.4374 9.22802C11.6518 9.38881 11.9467 9.38795 12.1601 9.22596L15.3153 6.83143C15.7364 6.51185 16.2861 7.01582 16.0043 7.46304L13.067 12.1232C12.5997 12.8645 11.5992 13.0491 10.8982 12.5233L8.56194 10.7711C8.34761 10.6104 8.05267 10.6112 7.83925 10.7732L4.68412 13.1677C4.26301 13.4873 3.71328 12.9833 3.99516 12.5361Z" fill="#0A7CFF"/>
</svg>
