<svg width="1044" height="669" viewBox="0 0 1044 669" fill="none" xmlns="http://www.w3.org/2000/svg">
<path opacity="0.1" d="M27.7761 -54L27.7761 722M56.5101 -54L56.5101 722M85.244 -54L85.244 722M113.978 -54L113.978 722M142.712 -54L142.712 722M171.446 -54L171.446 722M200.18 -54L200.18 722M228.914 -54L228.914 722M257.648 -54L257.648 722M286.382 -54L286.382 722M315.116 -54L315.116 722M343.85 -54L343.85 722M372.583 -54L372.583 722M401.317 -54L401.317 722M1044 -24.2277H0M1044 4.58416H0M1044 33.396H0M1044 62.2079H0M1044 91.0198H0M1044 119.832H0M1044 148.644H0M1044 177.455H0M1044 206.267H0M1044 235.079H0M1044 263.891H0M1044 292.703H0M1044 321.515H0M1044 350.327H0M1044 379.139H0M1044 407.951H0M1044 436.762H0M1044 465.574H0M1044 494.386H0M1044 523.198H0M1044 552.01H0M1044 580.822H0M1044 609.634H0M1044 638.446H0M1044 667.257H0M1044 696.069H0M430.051 -54L430.051 722M458.785 -54L458.785 722M487.519 -54L487.519 722M516.253 -54L516.253 722M544.987 -54L544.987 722M573.721 -54L573.721 722M602.455 -54L602.455 722M631.189 -54L631.189 722M659.923 -54L659.923 722M688.657 -54L688.657 722M717.391 -54L717.391 722M746.125 -54L746.125 722M774.859 -54L774.859 722M803.593 -54L803.593 722M832.327 -54L832.327 722M861.061 -54L861.061 722M889.795 -54L889.794 722M918.528 -54L918.528 722M947.262 -54L947.262 722M975.996 -54L975.996 722M1004.73 -54V722" stroke="url(#paint0_radial_339_784)"/>
<defs>
<radialGradient id="paint0_radial_339_784" cx="0" cy="0" r="1" gradientTransform="matrix(543.162 87.8491 -118.189 196.763 543.162 319.358)" gradientUnits="userSpaceOnUse">
<stop stop-color="#ED457D"/>
<stop offset="0.65268" stop-color="#FA8F42"/>
<stop offset="1" stop-color="#FDEDEC"/>
</radialGradient>
</defs>
</svg>
