<svg width="143" height="27" viewBox="0 0 143 27" fill="none" xmlns="http://www.w3.org/2000/svg">
<path fill-rule="evenodd" clip-rule="evenodd" d="M104.286 10.1133C102.801 10.1133 101.596 8.91981 101.596 7.44786C101.596 5.97471 102.801 4.78125 104.286 4.78125C105.772 4.78125 106.975 5.97471 106.975 7.44786C106.975 8.91981 105.772 10.1133 104.286 10.1133ZM104.286 22.71C105.772 22.71 106.975 21.516 106.975 20.0434C106.975 18.5703 105.772 17.3768 104.286 17.3768C102.801 17.3768 101.596 18.5703 101.596 20.0434C101.596 21.516 102.801 22.71 104.286 22.71Z" fill="#1A1A1A" fill-opacity="0.35"/>
<path fill-rule="evenodd" clip-rule="evenodd" d="M14.3006 20.1699C14.3006 24.0329 11.9161 26.8932 7.38009 26.8932C2.80645 26.8932 0 23.8017 0 19.8221V7.06992C0 3.08973 2.80586 0 7.38069 0C11.9161 0 14.3006 2.85904 14.3006 6.7233V9.85307H10.033V6.76214C10.033 5.25373 9.18791 4.21147 7.45718 4.21147C5.72765 4.21147 4.84376 5.25373 4.84376 6.68385V20.2075C4.84376 21.6377 5.72765 22.6811 7.45718 22.6811C9.18791 22.6811 10.033 21.6377 10.033 20.131V17.0389H14.3L14.3006 20.1699ZM31.7047 19.8597C31.7041 23.957 28.9371 26.8932 24.4387 26.8932C19.9787 26.8932 17.1728 23.957 17.1728 19.8597V7.03107C17.1728 2.97439 19.9787 0.0388457 24.4387 0.0388457C28.9377 0.0388457 31.7047 2.97439 31.7047 7.03107V19.8597ZM26.8986 20.1693V6.7227C26.8986 5.21668 26.0153 4.21147 24.4387 4.21147C22.901 4.21147 22.0172 5.21668 22.0172 6.7227V20.1693C22.0172 21.6765 22.9016 22.6811 24.4387 22.6811C26.0153 22.6811 26.8986 21.6771 26.8986 20.1693ZM48.1167 4.82882V0.579698H33.8914V4.82882H38.6192V26.3135H43.4247V4.82882H48.1167ZM64.5287 4.82882V0.579698H50.304V4.82882H55.0336V26.3135H59.8385V4.82882H64.5287ZM81.2485 19.8597C81.2485 23.957 78.4803 26.8932 73.9814 26.8932C69.5219 26.8932 66.7166 23.957 66.7166 19.8597V7.03107C66.7166 2.97439 69.5219 0.0388457 73.982 0.0388457C78.4803 0.0388457 81.2485 2.97439 81.2485 7.03107V19.8597ZM76.443 20.1693V6.7227C76.443 5.21668 75.5585 4.21147 73.982 4.21147C72.4443 4.21147 71.5604 5.21668 71.5604 6.7227V20.1693C71.5604 21.6765 72.4443 22.6811 73.982 22.6811C75.5591 22.6811 76.443 21.6771 76.443 20.1693ZM98.9592 26.3129V0.579698H94.6539V15.8419L92.9626 11.7452L88.2324 0.579698H84.1183V26.3135H88.5025V11.2443L90.3079 15.3393L95.2682 26.3135L98.9592 26.3129ZM124.524 19.8597C124.524 23.957 121.756 26.8932 117.257 26.8932C112.798 26.8932 109.993 23.957 109.993 19.8597V7.03107C109.993 2.97439 112.798 0.0388457 117.257 0.0388457C121.756 0.0388457 124.524 2.97439 124.524 7.03107L124.524 19.8597ZM119.718 20.1693V6.7227C119.718 5.21668 118.833 4.21147 117.257 4.21147C115.72 4.21147 114.836 5.21668 114.836 6.7227V20.1693C114.836 21.6765 115.72 22.6811 117.257 22.6811C118.834 22.6811 119.718 21.6771 119.718 20.1693ZM142.235 26.3135V0.579698H137.93V15.8419L136.238 11.7452L131.509 0.579698H127.395V26.3135H131.778V11.2443L133.584 15.3393L138.545 26.3135H142.235Z" fill="#1A1A1A" fill-opacity="0.35"/>
</svg>
