<svg width="116" height="31" viewBox="0 0 116 31" fill="none" xmlns="http://www.w3.org/2000/svg">
<path d="M17.8383 10.6029C18.5943 9.55351 19.4982 8.76249 20.5504 8.23159C21.6025 7.6998 22.7827 7.43436 24.0914 7.43436C26.3175 7.43436 28.0745 8.07624 29.3627 9.36087C30.6519 10.6437 31.2957 12.3955 31.2957 14.6143V27.2299C31.2957 28.3205 31.0567 29.1359 30.5777 29.6724C30.0992 30.2109 29.3745 30.4801 28.4041 30.4801C27.4605 30.4801 26.7391 30.205 26.2407 29.6529C25.7415 29.1005 25.493 28.2932 25.493 27.2299V15.8055C25.493 14.7557 25.2056 13.938 24.6323 13.3523C24.0587 12.7676 23.2585 12.4745 22.2331 12.4745C21.0856 12.4745 20.1745 12.8446 19.4993 13.585C18.825 14.3247 18.4874 15.3404 18.4874 16.6319V27.2299C18.4874 28.307 18.2438 29.1182 17.7572 29.6627C17.2703 30.2092 16.5467 30.4801 15.5865 30.4801C14.6258 30.4801 13.9089 30.2109 13.4358 29.6724C12.9622 29.1359 12.7258 28.3205 12.7258 27.2299V15.844C12.7258 14.7811 12.4488 13.9605 11.8954 13.3825C11.342 12.8036 10.5526 12.5147 9.52723 12.5147C8.38041 12.5147 7.47265 12.8844 6.8051 13.6241C6.1372 14.3642 5.80343 15.38 5.80343 16.6711V27.2299C5.80343 28.307 5.56045 29.1182 5.07529 29.6627C4.59014 30.2092 3.86164 30.4801 2.89124 30.4801C1.93448 30.4801 1.21365 30.2092 0.727778 29.6627C0.242622 29.1182 0 28.307 0 27.2299V11.0654C0 10.0054 0.239148 9.1904 0.717711 8.62044C1.19663 8.05048 1.88048 7.7655 2.77015 7.7655C3.60619 7.7655 4.25984 7.99988 4.73145 8.46952C5.20297 8.93917 5.48632 9.63697 5.58103 10.5629C6.36414 9.51268 7.26246 8.72165 8.27527 8.18987C9.28844 7.65897 10.4297 7.39352 11.6994 7.39352C13.0909 7.39352 14.2792 7.65187 15.2655 8.17034C16.2515 8.68792 17.1091 9.49936 17.8383 10.6029Z" fill="#1A1A1A" fill-opacity="0.35"/>
<path fill-rule="evenodd" clip-rule="evenodd" d="M47.6854 19.3204C46.7128 19.7801 45.6023 20.1398 44.3527 20.403C43.1036 20.6645 42.459 20.8039 42.4186 20.8157C41.3923 21.1105 40.6731 21.4798 40.261 21.9241C39.8493 22.3662 39.6433 22.9773 39.6433 23.7555C39.6433 24.5871 39.9134 25.2353 40.4538 25.6972C40.9937 26.1611 41.75 26.3929 42.7224 26.3929C44.2212 26.3929 45.423 25.9388 46.3279 25.033C47.2326 24.1269 47.6854 22.9165 47.6854 21.3994V19.3204ZM53.3227 13.5899V26.0509C53.3227 26.4931 53.3561 27.0063 53.4237 27.5837C53.4912 28.1636 53.5253 28.519 53.5253 28.6525C53.5253 29.352 53.3029 29.9006 52.8588 30.2995C52.4136 30.6945 51.7941 30.8932 50.9991 30.8932C49.908 30.8932 49.1033 30.6119 48.5847 30.0463C48.0654 29.48 47.7995 28.5918 47.7862 27.3815C47.0429 28.5252 46.0704 29.3978 44.8678 29.995C43.666 30.5942 42.2672 30.8932 40.6731 30.8932C38.5657 30.8932 36.9274 30.2957 35.759 29.0988C34.5899 27.9017 34.0059 26.2277 34.0059 24.0779C34.0059 22.0596 34.499 20.5167 35.4851 19.4479C36.4718 18.3791 38.1467 17.5967 40.5113 17.0998C41.4162 16.9112 42.5679 16.7322 43.9664 16.565C45.3649 16.3962 46.273 16.245 46.6924 16.1111C47.0028 16.0029 47.2326 15.8084 47.3815 15.5264C47.5301 15.2444 47.6039 14.8883 47.6039 14.4579C47.6039 13.5709 47.3272 12.9355 46.7734 12.5526C46.2197 12.169 45.2943 11.9782 43.997 11.9782C43.3222 11.9782 42.704 12.0714 42.1436 12.2599C41.5833 12.4479 41.0863 12.7233 40.654 13.0857C40.5051 13.2199 40.2823 13.4484 39.9851 13.7713C39.053 14.778 38.1814 15.2819 37.3712 15.2819C36.696 15.2819 36.1321 15.0503 35.68 14.5862C35.2272 14.1223 35.0009 13.5538 35.0009 12.8814C35.0009 11.4144 35.8481 10.1342 37.5418 9.0378C39.2354 7.94138 41.3178 7.39361 43.7875 7.39361C46.8647 7.39361 49.2226 7.92451 50.8627 8.98808C52.5027 10.0517 53.3227 11.5849 53.3227 13.5899Z" fill="#1A1A1A" fill-opacity="0.35"/>
<path d="M63.1202 27.2337C63.1202 28.2949 62.8741 29.1026 62.3817 29.6529C61.8902 30.205 61.166 30.4801 60.2091 30.4801C59.2659 30.4801 58.5618 30.2109 58.0964 29.6744C57.6321 29.1359 57.3997 28.3226 57.3997 27.2337V3.26796C57.3997 2.16444 57.6321 1.345 58.0964 0.806997C58.5618 0.269884 59.2659 -1.90735e-06 60.2091 -1.90735e-06C61.166 -1.90735e-06 61.8902 0.276108 62.3817 0.827425C62.8741 1.37874 63.1202 2.19196 63.1202 3.26796V15.9931L68.9689 9.41945C69.5494 8.7474 70.0217 8.3106 70.3858 8.10907C70.7502 7.90666 71.1616 7.80634 71.62 7.80634C72.3349 7.80634 72.9621 8.05137 73.5026 8.54232C74.0421 9.03326 74.3121 9.60057 74.3121 10.246C74.3121 10.8914 73.7591 11.8129 72.6526 13.009L72.5914 13.0696L69.5355 16.3153L74.7202 25.1963C75.1283 25.8541 75.3983 26.3557 75.5275 26.6993C75.6558 27.0412 75.7217 27.3676 75.7217 27.6759C75.7217 28.4975 75.4571 29.1695 74.9305 29.6938C74.403 30.2189 73.7264 30.4801 72.9018 30.4801C72.1855 30.4801 71.5671 30.3271 71.0464 30.0164C70.526 29.708 70.0761 29.2167 69.6974 28.5446L65.3457 20.7726L63.1202 23.1759V27.2337Z" fill="#1A1A1A" fill-opacity="0.35"/>
<path d="M84.5479 12.3026C85.1422 10.8772 85.8836 9.7648 86.7737 8.9649C87.6647 8.16501 88.6092 7.7655 89.608 7.7655C90.5792 7.7655 91.3419 8.03362 91.8952 8.57162C92.4476 9.10962 92.7247 9.84826 92.7247 10.7902C92.7247 11.2607 92.6463 11.6771 92.4913 12.0402C92.3363 12.4031 92.0975 12.7259 91.7731 13.0083C91.3953 13.3308 90.7209 13.5128 89.7488 13.5531C89.1821 13.5797 88.7499 13.6197 88.4541 13.6737C87.3074 13.8891 86.4413 14.4027 85.8542 15.2163C85.2661 16.0306 84.9729 17.1289 84.9729 18.5143V27.2337C84.9729 28.3088 84.7261 29.1182 84.2343 29.6647C83.7425 30.2092 83.0038 30.4801 82.0201 30.4801C81.0489 30.4801 80.3174 30.2092 79.8256 29.6647C79.3328 29.1182 79.0869 28.3088 79.0869 27.2337V11.0725C79.0869 9.96989 79.3257 9.14247 79.8051 8.59204C80.2835 8.04072 80.9946 7.7655 81.939 7.7655C82.7614 7.7655 83.4012 7.99367 83.8601 8.45088C84.3189 8.90809 84.5479 9.54641 84.5479 10.3667V12.3026Z" fill="#1A1A1A" fill-opacity="0.35"/>
<path fill-rule="evenodd" clip-rule="evenodd" d="M103.905 12.3492C102.245 12.3492 100.968 12.9374 100.07 14.1133C99.1731 15.2897 98.724 16.9599 98.724 19.1235C98.724 21.301 99.1731 22.9809 100.07 24.1641C100.968 25.347 102.245 25.9366 103.905 25.9366C105.538 25.9366 106.803 25.347 107.7 24.1641C108.597 22.9809 109.046 21.301 109.046 19.1235C109.046 16.9599 108.597 15.2897 107.7 14.1133C106.803 12.9374 105.538 12.3492 103.905 12.3492ZM103.906 7.39339C107.36 7.39339 110.082 8.43565 112.071 10.5202C114.062 12.6041 115.057 15.4683 115.057 19.1117C115.057 22.7707 114.062 25.6418 112.071 27.7249C110.082 29.8103 107.36 30.8516 103.906 30.8516C100.439 30.8516 97.7136 29.8103 95.7302 27.7249C93.7477 25.6418 92.7551 22.7707 92.7551 19.1117C92.7551 15.4683 93.7477 12.6041 95.7302 10.5202C97.7136 8.43565 100.439 7.39339 103.906 7.39339Z" fill="#1A1A1A" fill-opacity="0.35"/>
</svg>
