<svg width="122" height="33" viewBox="0 0 122 33" fill="none" xmlns="http://www.w3.org/2000/svg">
<g clip-path="url(#clip0_2644_1479)">
<path d="M16.7754 30.8729C14.9401 31.1955 13.0726 31.2922 11.1407 31.5497L5.24826 14.2764V32.2911C3.41302 32.4844 1.73874 32.7422 0 33V0H4.8943L11.5914 18.7239V0H16.7754V30.8729ZM26.9179 12.085C28.9144 12.085 31.9732 11.9883 33.8084 11.9883V17.1444C31.5222 17.1444 28.8499 17.1444 26.9179 17.2411V24.9112C29.9447 24.7179 32.9713 24.4598 36.03 24.3631V29.3257L21.766 30.4539V0H36.03V5.15626H26.9179V12.085ZM55.1881 5.15638H49.8432V28.8751C48.1045 28.8751 46.3657 28.8751 44.6917 28.9394V5.15638H39.3468V0H55.1883L55.1881 5.15638ZM63.5596 11.7306H70.6112V16.8867H63.5596V28.5851H58.5041V0H72.8973V5.15626H63.5596V11.7306ZM81.2688 24.0732C84.1989 24.1375 87.161 24.3635 90.0268 24.5243V29.6162C85.4225 29.326 80.8181 29.0363 76.1172 28.9394V0H81.2688V24.0732ZM94.3736 29.9707C96.0157 30.0675 97.7544 30.1642 99.4287 30.3573V0H94.3736V29.9707ZM122 0L115.464 15.6944L122 33C120.068 32.7422 118.136 32.3877 116.204 32.0654L112.501 22.5265L108.735 31.2922C106.867 30.9696 105.064 30.8729 103.196 30.6151L109.829 15.5008L103.84 0H109.378L112.759 8.66897L116.365 0L122 0Z" fill="#1A1A1A" fill-opacity="0.35"/>
</g>
<defs>
<clipPath id="clip0_2644_1479">
<rect width="122" height="33" fill="white"/>
</clipPath>
</defs>
</svg>
