<svg width="152" height="30" viewBox="0 0 152 30" fill="none" xmlns="http://www.w3.org/2000/svg">
<g clip-path="url(#clip0_2644_2085)">
<path d="M18.1199 10.6685C18.1199 12.9668 17.3925 13.5733 15.9212 13.5733H10.1445V7.76695H15.9212C17.3958 7.76695 18.1199 8.3702 18.1199 10.6685ZM22.8367 10.6685C22.8367 7.13418 21.7604 5.06212 19.8283 4.29166C18.9362 3.94085 17.8336 3.89823 16.4775 3.89823H6.4284C5.89517 3.89823 5.46727 4.32444 5.46727 4.85229V22.0451C5.46727 22.5632 5.89517 22.9959 6.4284 22.9959H9.20975C9.72652 22.9959 10.1478 22.5632 10.1478 22.0451V17.442H16.4808C17.8369 17.442 18.9395 17.3994 19.8315 17.042C21.7637 16.2781 22.8367 14.2061 22.8367 10.6685ZM27.1157 2.42615V24.4615C27.1157 25.7958 26.0098 26.8942 24.6668 26.8942H2.54109C1.20143 26.8942 0.108643 25.7991 0.108643 24.4615V2.42615C0.111934 1.09832 1.20143 0 2.54109 0H24.6635C26.0098 0 27.1157 1.09832 27.1157 2.42615ZM34.6106 7.77678C34.6106 7.25221 34.1892 6.82599 33.656 6.82599H30.8812C30.3513 6.82599 29.9201 7.25221 29.9201 7.77678V22.0484C29.9201 22.5632 30.3513 22.9959 30.8812 22.9959H33.656C34.1859 22.9959 34.6106 22.5632 34.6106 22.0484V7.77678ZM44.0672 10.5013C45.3936 10.4423 46.8847 10.6062 47.6681 10.6849C48.3889 10.7439 48.649 10.4849 48.649 9.87507V8.10136C48.649 7.4686 48.3791 7.16041 47.7668 7.00632C47.3521 6.89484 46.1145 6.626 44.0672 6.63256C37.7112 6.66207 37.3261 12.4619 37.2339 13.5504C37.1516 14.5438 37.1615 15.3568 37.2339 16.3011C37.3096 17.3863 37.7145 23.1894 44.0672 23.2156C46.1145 23.2221 47.4245 22.9336 47.7668 22.8451C48.3824 22.7009 48.649 22.3763 48.649 21.7435V19.9796C48.649 19.301 48.3231 19.0846 47.599 19.1698C46.6313 19.2747 45.0744 19.3862 44.0672 19.3502C42.5925 19.301 41.8585 18.4649 41.7071 16.1929C41.6544 15.3568 41.6544 14.488 41.7071 13.6553C41.8618 11.3898 42.5958 10.5603 44.0672 10.5013ZM64.5109 22.9959H60.9857C60.3866 22.9959 59.9916 22.5435 59.804 22.291L55.7949 16.8584V22.0255C55.7949 22.5468 55.3473 22.9992 54.8107 22.9992H52.1084C51.5686 22.9992 51.1176 22.5468 51.1176 22.0255V2.40975C51.1176 1.88846 51.5521 1.45897 52.1084 1.45897H54.8107C55.3538 1.45897 55.7949 1.88846 55.7949 2.40975V12.7537L60.2319 7.29811C60.5281 6.9473 60.8046 6.82599 61.2161 6.82599H64.3694C65.0836 6.82599 65.4358 7.29155 64.9355 7.98989L59.3399 14.5438L65.0606 21.996C65.5346 22.6287 65.1133 22.9959 64.5109 22.9959Z" fill="#1A1A1A" fill-opacity="0.35"/>
<path d="M84.9645 12.3865V22.0091C84.9645 22.5304 84.5399 22.9631 84.0001 22.9631H81.2451C80.7185 22.9631 80.2873 22.5304 80.2873 22.0091V12.5274C80.2873 11.3209 80.1161 10.5734 77.7659 10.5734C76.5448 10.5734 75.9095 10.7242 75.0438 10.8619V22.0484C75.0438 22.5632 74.6225 22.9959 74.0926 22.9959H71.3112C70.7747 22.9959 70.3567 22.5632 70.3567 22.0484V8.5079C70.3567 8.20955 70.3797 7.71449 71.0282 7.51449C72.1572 7.16369 74.8003 6.61616 77.4598 6.61616C83.0587 6.61616 84.9645 8.72101 84.9645 12.3865ZM152 21.7074C152 26.7532 149.91 29.0547 144.597 29.0547C142.619 29.0547 140.812 28.799 139.522 28.3859C138.919 28.2121 138.676 27.8679 138.676 27.3335V25.7434C138.676 25.209 139.021 24.8319 139.611 24.95C141.006 25.2319 142.695 25.4024 144.311 25.4024C146.911 25.4024 147.31 24.7795 147.31 22.7238C146.352 22.8943 145.338 23.0156 144.321 23.0156C139.558 23.0156 137.646 21.4911 137.646 17.2289V7.75055C137.646 7.22598 138.077 6.80304 138.597 6.80304H141.368C141.898 6.80304 142.326 7.22598 142.326 7.75055V17.3076C142.326 18.8289 143.149 19.4157 145.045 19.4157C145.828 19.4157 146.678 19.242 147.313 19.0813V7.75055C147.313 7.22598 147.741 6.80304 148.267 6.80304H151.036C151.566 6.80304 152.003 7.22598 152.003 7.75055V21.7074H152ZM110.987 17.042C110.095 17.3994 108.986 17.442 107.63 17.442H101.3V22.0451C101.3 22.5632 100.879 22.9959 100.356 22.9959H97.5843C97.0544 22.9959 96.6166 22.5632 96.6166 22.0451V4.85229C96.6166 4.32444 97.0511 3.89823 97.5843 3.89823H107.63C108.986 3.89823 110.095 3.94413 110.987 4.29165C112.913 5.06212 113.999 7.13418 113.999 10.6685C113.999 14.2061 112.913 16.2781 110.987 17.042ZM115.823 0H93.6937C92.354 0 91.2613 1.09832 91.2613 2.42615V24.4614C91.2613 25.7958 92.354 26.8941 93.6937 26.8941H115.823C117.162 26.8941 118.265 25.7991 118.265 24.4614V2.42615C118.265 1.09832 117.166 0 115.823 0ZM107.074 7.76694H101.304V13.5733H107.074C108.548 13.5733 109.269 12.97 109.269 10.6685C109.269 8.3702 108.548 7.76694 107.074 7.76694ZM130.032 19.5731C129.667 19.6354 128.304 19.7075 127.797 19.7075C126 19.7075 125.296 19.1436 125.296 17.6977C125.296 16.4355 126.165 15.9732 127.225 15.8158C127.962 15.7011 129.104 15.7208 130.036 15.7798V19.5731H130.032ZM127.945 6.58994C126.046 6.58994 124.295 6.86206 123.179 7.16041C122.564 7.31778 122.317 7.64564 122.317 8.13087V9.72753C122.317 10.4029 122.722 10.6914 123.39 10.5931C124.572 10.4259 126.013 10.2455 127.564 10.2455C129.687 10.2455 130.032 10.8324 130.032 11.9799V12.6323C128.475 12.5635 126.593 12.5635 125.128 12.8618C122.508 13.3963 120.872 14.9142 120.872 18.042C120.872 21.6452 122.962 23.1828 127.692 23.1697C130.253 23.1664 132.336 22.9992 133.755 22.6877C134.236 22.5861 134.584 22.1107 134.584 21.4878V12.2422C134.584 9.1964 134.038 6.58994 127.945 6.58994Z" fill="#1A1A1A" fill-opacity="0.35"/>
</g>
<defs>
<clipPath id="clip0_2644_2085">
<rect width="152" height="30" fill="white"/>
</clipPath>
</defs>
</svg>
