<svg width="177" height="42" viewBox="0 0 177 42" fill="none" xmlns="http://www.w3.org/2000/svg">
<g clip-path="url(#clip0_2644_2058)">
<path d="M50.718 9.37061H49.0088V30.3602H50.718V9.37061Z" fill="#1A1A1A" fill-opacity="0.35"/>
<path d="M47.1109 22.8999C47.1109 27.586 44.5604 30.6996 40.734 30.6996C36.8512 30.6996 34.272 27.6167 34.272 22.8999C34.272 18.1213 36.8225 15.0691 40.7625 15.0691C44.6449 15.0691 47.1109 18.1213 47.1109 22.8999ZM36.1322 22.9302C36.1322 26.5376 38.0413 29.2367 40.7063 29.2367C43.37 29.2367 45.252 26.5376 45.252 22.8999C45.252 19.2307 43.398 16.531 40.734 16.531C37.9564 16.531 36.1322 19.1696 36.1322 22.9302Z" fill="#1A1A1A" fill-opacity="0.35"/>
<path d="M83.341 22.8999C83.341 27.586 80.7908 30.6996 76.9635 30.6996C73.0807 30.6996 70.5015 27.6167 70.5015 22.8999C70.5015 18.1213 73.0528 15.0691 76.9924 15.0691C80.8752 15.0691 83.341 18.1213 83.341 22.8999ZM72.3617 22.9302C72.3617 26.5376 74.2714 29.2367 76.936 29.2367C79.5995 29.2367 81.4817 26.5376 81.4817 22.8999C81.4817 19.2307 79.6276 16.531 76.9635 16.531C74.1853 16.531 72.3617 19.1696 72.3617 22.9302Z" fill="#1A1A1A" fill-opacity="0.35"/>
<path d="M32.9935 22.8999C32.9935 27.586 30.4427 30.6996 26.617 30.6996C22.7338 30.6996 20.1545 27.6167 20.1545 22.8999C20.1545 18.1213 22.7053 15.0691 26.6447 15.0691C30.5275 15.0691 32.9935 18.1213 32.9935 22.8999ZM22.015 22.9302C22.015 26.5376 23.9239 29.2367 26.5885 29.2367C29.2526 29.2367 31.1344 26.5376 31.1344 22.8999C31.1344 19.2307 29.2801 16.531 26.617 16.531C23.8388 16.531 22.015 19.1696 22.015 22.9302Z" fill="#1A1A1A" fill-opacity="0.35"/>
<path d="M102.179 15.4387V16.1482C102.148 16.796 102.179 17.4739 102.091 18.1212C103.052 16.2715 104.771 15.2228 106.781 15.2228C110.072 15.2228 111.253 17.6586 111.426 20.7725C111.486 21.4824 111.515 22.6848 111.515 23.3926V30.3604H109.811V23.3926C109.811 22.53 109.78 21.0709 109.724 20.3623C109.52 17.9866 108.355 16.6929 106.462 16.6929C104.915 16.6929 103.489 17.7097 102.73 19.3132C102.441 19.8995 102.323 20.4848 102.237 21.7496C102.206 22.2118 102.179 23.147 102.179 23.3926V30.3604H100.483V9.37061H102.179V15.4387Z" fill="#1A1A1A" fill-opacity="0.35"/>
<path d="M120.767 17.1861C119.619 16.7908 119.077 16.6757 117.933 16.6298C116.231 16.56 115.015 17.6587 115.015 18.9228C115.015 22.0054 121.991 21.6664 121.991 26.4147C121.991 28.9117 119.919 30.6376 116.884 30.6376C115.605 30.6376 114.527 30.4229 113.249 29.8974L113.371 28.208C114.649 28.9162 115.633 29.1785 116.769 29.1785C118.7 29.1785 120.118 27.8949 120.118 26.4147C120.118 22.838 113.307 23.4545 113.307 18.9534C113.307 16.6418 115.124 15.1165 117.961 15.1616C119.056 15.1793 119.57 15.2098 120.901 15.6723L120.767 17.1861Z" fill="#1A1A1A" fill-opacity="0.35"/>
<path d="M62.1646 15.3835C62.1646 15.3835 64.2404 23.8547 64.673 25.8386C64.884 26.8052 65.1929 28.2222 65.1929 28.2222C65.1929 28.2222 65.5161 26.8052 65.7744 25.8409C66.3095 23.844 68.6793 15.3837 68.6793 15.3837H70.5122L66.1879 30.3459H64.1745C64.1745 30.3459 61.9005 20.462 61.6341 19.2465C61.5001 18.6362 61.3143 17.7067 61.3143 17.7067C61.3143 17.7067 61.129 18.6362 60.9942 19.2465C60.7278 20.462 58.4541 30.3459 58.4541 30.3459H56.4399L52.1162 15.3837H53.9489C53.9489 15.3837 56.3191 23.8442 56.8545 25.8409C57.1128 26.8052 57.4354 28.2222 57.4354 28.2222C57.4354 28.2222 57.7445 26.8052 57.9549 25.8386C58.3882 23.8547 60.4637 15.3835 60.4637 15.3835H62.1646Z" fill="#1A1A1A" fill-opacity="0.35"/>
<path d="M10.9552 13.1199C10.9552 13.1199 13.745 23.3159 14.2154 25.0765C14.4789 26.0607 14.8913 27.7952 14.8913 27.7952C14.8913 27.7952 15.2557 26.0581 15.5 25.0674C15.932 23.3207 18.543 13.1199 18.543 13.1199H20.3181L15.8934 30.3562H13.9533C13.9533 30.3562 10.7049 17.8847 10.549 17.2469C10.3935 16.609 10.1593 15.3795 10.1593 15.3795C10.1593 15.3795 9.92542 16.6088 9.76914 17.2469C9.61422 17.8847 6.36546 30.3562 6.36546 30.3562H4.42494L0 13.1199H1.77571C1.77571 13.1199 4.38635 23.3207 4.81758 25.0674C5.06247 26.0583 5.42681 27.7952 5.42681 27.7952C5.42681 27.7952 5.84 26.0605 6.10293 25.0765C6.57352 23.3157 9.3637 13.1199 9.3637 13.1199H10.9552Z" fill="#1A1A1A" fill-opacity="0.35"/>
<path d="M85.1821 30.3601V15.4096H86.6329V18.828C86.6329 18.828 87.4416 15.6478 91.947 15.4139C92.5741 15.381 93.3908 15.4004 93.3908 15.4004V11.64L95.0845 10.9773V15.4039H98.5653V16.9197H95.0845C95.0845 16.9197 95.0845 24.4672 95.0845 26.0077C95.0845 28.1522 95.7528 28.8985 97.2115 28.8985C98.0199 28.8985 98.6861 28.5979 98.6861 28.5979L98.8663 30.0752C98.8663 30.0752 98.023 30.3521 97.1309 30.3521C96.6715 30.3521 95.3131 30.4174 94.3832 29.4747C93.7613 28.8441 93.3908 27.8222 93.3908 25.9229C93.3908 24.1874 93.3935 16.8589 93.3912 16.8589C92.8013 16.8544 91.5323 16.784 90.5036 17.0535C89.1281 17.4152 86.8783 18.8486 86.8783 22.4252C86.8783 23.7227 86.8783 30.3601 86.8783 30.3601H85.1821Z" fill="#1A1A1A" fill-opacity="0.35"/>
<path d="M145.086 35.411C147.657 35.411 149.903 34.6236 151.7 33.3618C151.085 33.5467 150.328 33.6982 149.566 33.6982C146.147 33.6982 139.117 31.1601 139.117 22.7564C139.117 15.9977 144.783 12.7352 149.394 12.267C149.394 12.267 147.243 9.6665 142.776 9.6665C137.729 9.6665 130.695 13.2074 130.695 22.4461C130.695 22.9818 130.718 23.5234 130.77 24.076C131.065 25.1749 132.941 35.411 145.086 35.411Z" fill="#1A1A1A" fill-opacity="0.35"/>
<path d="M162.608 35.4109C161.565 35.4109 160.579 35.2816 159.649 35.0439C158.116 37.1585 156.139 38.984 153.846 40.2387C155.872 41.3446 158.144 42.0003 160.566 42.0003C169.854 42.0003 176.176 32.3104 176.925 24.0759C176.63 25.1657 174.717 35.4109 162.608 35.4109Z" fill="#1A1A1A" fill-opacity="0.35"/>
<path d="M164.919 9.6665C160.452 9.6665 158.301 12.267 158.301 12.267C162.912 12.7352 168.578 15.9979 168.578 22.7564C168.578 29.32 164.289 32.3018 160.783 33.2984C160.44 33.8969 160.061 34.4795 159.649 35.044C160.579 35.2817 161.565 35.411 162.608 35.411C174.717 35.411 176.63 25.1658 176.925 24.076C176.977 23.5234 177 22.9818 177 22.4461C177 13.2074 169.966 9.6665 164.919 9.6665Z" fill="#1A1A1A" fill-opacity="0.35"/>
<path d="M149.565 33.6982C150.327 33.6982 151.085 33.5467 151.7 33.3618C151.7 33.3618 151.701 33.3618 151.701 33.3616C152.529 32.7813 153.261 32.0953 153.885 31.3454C153.885 31.3449 153.885 31.3449 153.885 31.3449C153.459 30.8078 151.478 28.1206 151.478 24.525C151.478 21.1625 153.275 19.7272 153.868 19.3441C153.868 19.3435 153.868 19.3431 153.867 19.3425C152.634 18.4206 151.243 18.1538 150.453 18.1538C149.179 18.1538 145.737 19.0293 144.925 22.9703C144.925 22.969 144.926 22.9676 144.926 22.9666C144.925 22.9703 144.924 22.9746 144.924 22.9783C144.894 23.1366 144.868 23.2935 144.845 23.4505C144.763 24.1077 144.716 24.8348 144.716 25.6309C144.716 28.793 146.058 31.62 147.107 33.3526C148.016 33.5924 148.868 33.6982 149.565 33.6982Z" fill="#1A1A1A" fill-opacity="0.35"/>
<path d="M153.912 15.0327C148.303 15.0327 145.637 19.1683 144.925 22.9701C145.737 19.029 149.179 18.1536 150.453 18.1536C151.243 18.1536 152.633 18.4204 153.867 19.3423C153.867 19.3429 153.868 19.3429 153.868 19.3438C155.213 20.3478 156.372 22.0474 156.372 24.7587C156.372 27.0697 155.475 29.4347 153.885 31.3446C153.885 31.3446 153.885 31.3446 153.885 31.3452C151.9 33.7353 148.836 35.4107 145.086 35.4107C132.941 35.4107 131.065 25.1747 130.77 24.0758C131.519 32.3103 137.84 42.0001 147.129 42.0001C156.198 42.0001 163.128 32.819 163.128 25.1305C163.128 19.7989 160.111 15.0327 153.912 15.0327Z" fill="#1A1A1A" fill-opacity="0.35"/>
<path d="M154.08 11.8935C154.08 11.8935 152.144 10.0291 152.009 7.48672C151.911 5.63665 152.66 2.80573 155.58 1.23587C162.416 -2.43297 168.358 2.90432 167.669 6.36217C167.669 6.36217 162.577 4.04093 157.89 6.81896C154.441 8.86135 154.08 11.8935 154.08 11.8935Z" fill="#1A1A1A" fill-opacity="0.35"/>
</g>
<defs>
<clipPath id="clip0_2644_2058">
<rect width="177" height="42" fill="white"/>
</clipPath>
</defs>
</svg>
